<svg xmlns="http://www.w3.org/2000/svg" width="756.902" height="467.837" viewBox="0 0 756.902 467.837">
  <g id="mastercardlogo" transform="translate(0 0.001)">
    <path id="Path_71" data-name="Path 71" d="M1948.561,986.3V977.22H1946.2l-2.736,6.231-2.72-6.231h-2.373V986.3h1.682V979.46l2.557,5.9h1.741l2.558-5.917V986.3h1.666Zm-15,0v-7.527h3.028v-1.533h-7.736v1.533h3.026V986.3h1.666Z" transform="translate(-1198.964 -607.436)" fill="#f79410"/>
    <path id="Path_72" data-name="Path 72" d="M934.372,499.959H729.71V132.15H934.377Z" transform="translate(-453.585 -82.144)" fill="#ff5f00"/>
    <path id="Path_73" data-name="Path 73" d="M289.1,233.918a233.532,233.532,0,0,1,89.334-183.9A232.893,232.893,0,0,0,233.888,0C104.712,0,0,104.727,0,233.918S104.712,467.836,233.888,467.836a232.893,232.893,0,0,0,144.551-50.014,233.529,233.529,0,0,1-89.337-183.9" transform="translate(0 0)" fill="#eb001b"/>
    <path id="Path_74" data-name="Path 74" d="M1378.566,233.918c0,129.191-104.71,233.918-233.888,233.918a232.963,232.963,0,0,1-144.568-50.014,233.939,233.939,0,0,0,0-367.809A232.959,232.959,0,0,1,1144.675,0c129.176,0,233.889,104.727,233.889,233.918" transform="translate(-621.664 0)" fill="#f79e1b"/>
  </g>
</svg>
