<svg id="VISA" xmlns="http://www.w3.org/2000/svg" width="625.93" height="462.586" viewBox="0 0 625.93 462.586">
  <rect id="RECTANGLE" width="625.93" height="462.586" fill="#0e4595"/>
  <g id="VISA-2" data-name="VISA" transform="translate(90.41 154.195)">
    <g id="Group_1" data-name="Group 1" transform="translate(0 0)">
      <path id="Path_7" data-name="Path 7" d="M197.394,172.409H161.745l22.28-134.067h35.653ZM131.755,38.342,97.769,130.554,93.747,110.7l0,.007-12-60.292s-1.45-12.071-16.911-12.071H8.659L8,40.612s17.182,3.5,37.29,15.324L76.261,172.413H113.4L170.122,38.342H131.755Zm280.4,134.067h32.734L416.347,38.338H387.69c-13.233,0-16.456,9.991-16.456,9.991L318.066,172.409h37.162l7.432-19.914h45.318l4.175,19.914Zm-39.228-47.424,18.731-50.171,10.538,50.171Zm-52.073-54.4,5.087-28.79s-15.7-5.846-32.063-5.846c-17.691,0-59.7,7.571-59.7,44.383,0,34.636,49.307,35.066,49.307,53.259s-44.227,14.933-58.823,3.461l-5.3,30.1s15.918,7.571,40.238,7.571,61.028-12.333,61.028-45.9c0-34.858-49.751-38.1-49.751-53.259s34.722-13.211,49.978-4.981Z" transform="translate(-8 -35.946)" fill="#fff"/>
    </g>
    <path id="Path_8" data-name="Path 8" d="M93.751,108.774l-12-60.291s-1.45-12.071-16.911-12.071H8.659L8,38.682s27,5.48,52.908,26.011C85.674,84.316,93.751,108.774,93.751,108.774Z" transform="translate(-8 -34.02)" fill="#e6a540"/>
  </g>
</svg>
